# xmcd
#
# Track frame offsets:
#	150
#	14020
#	36850
#	54168
#	79265
#	95468
#	113030
#	129803
#	168540
#	184296
#	203537
#	226707
#	246351
#	270969
#	287782
#	304270
#
# Disc length: 4336 seconds
#
# Revision: 1
# Processed by: cddbd v1.5.1PL2 Copyright (c) Steve Scherf et al.
# Submitted via: audiograbber 1.83.01
#
DISCID=d010ee10
DTITLE=John Westbrook - Along the Banks of the Yellowstone
DYEAR=1900
DGENRE=Country
TTITLE0=Sally Ann
TTITLE1=Angels of Horses
TTITLE2=He's a Cowboy
TTITLE3=A Golden Pony You Could Call Your Own
TTITLE4=Prairie Fire
TTITLE5=Ride On
TTITLE6=I Just Don't Look Good Naked Anymore
TTITLE7=Along The Banks Of The Yellowstone
TTITLE8=Rosalita
TTITLE9=The Yodeler's Cattle Call
TTITLE10=Ghost Riders
TTITLE11=Barstool Number .5
TTITLE12=Montana's Calling Out To Me
TTITLE13=The Old Woodsrunner
TTITLE14=Cowboy Poets
TTITLE15=Clementine And Billy
EXTD=www.cowboyentertainer.com
EXTT0=
EXTT1=
EXTT2=
EXTT3=
EXTT4=
EXTT5=
EXTT6=
EXTT7=
EXTT8=
EXTT9=
EXTT10=
EXTT11=
EXTT12=
EXTT13=
EXTT14=
EXTT15=
PLAYORDER=
